<?xml version="1.0" encoding="UTF-8"?>
<svg width="1024px" height="1024px" viewBox="0 0 1024 1024" version="1.1" xmlns="http://www.w3.org/2000/svg" xmlns:xlink="http://www.w3.org/1999/xlink">
    <!-- Generator: Sketch 63.1 (92452) - https://sketch.com -->
    <title>Icon</title>
    <desc>Created with Sketch.</desc>
    <defs>
        <linearGradient x1="50%" y1="0%" x2="50%" y2="100%" id="linearGradient-1">
            <stop stop-color="#333333" offset="0%"></stop>
            <stop stop-color="#212121" offset="49.531987%"></stop>
            <stop stop-color="#000000" offset="100%"></stop>
        </linearGradient>
        <filter x="-5.4%" y="-5.4%" width="110.8%" height="110.8%" filterUnits="objectBoundingBox" id="filter-2">
            <feOffset dx="0" dy="5" in="SourceAlpha" result="shadowOffsetOuter1"></feOffset>
            <feGaussianBlur stdDeviation="10" in="shadowOffsetOuter1" result="shadowBlurOuter1"></feGaussianBlur>
            <feColorMatrix values="0 0 0 0 0   0 0 0 0 0   0 0 0 0 0  0 0 0 0.35 0" type="matrix" in="shadowBlurOuter1" result="shadowMatrixOuter1"></feColorMatrix>
            <feMerge>
                <feMergeNode in="shadowMatrixOuter1"></feMergeNode>
                <feMergeNode in="SourceGraphic"></feMergeNode>
            </feMerge>
        </filter>
        <polygon id="path-3" points="0 0.244 899.103 0.244 899.103 899 0 899"></polygon>
        <linearGradient x1="50%" y1="0%" x2="50%" y2="100%" id="linearGradient-5">
            <stop stop-color="#4FACF9" offset="0%"></stop>
            <stop stop-color="#2D68F8" offset="100%"></stop>
        </linearGradient>
    </defs>
    <g id="Page-1" stroke="none" stroke-width="1" fill="none" fill-rule="evenodd">
        <g id="macOS-icon">
            <g id="Icon-Artwork">
                <g id="Icon" filter="url(#filter-2)" transform="translate(62.000000, 70.000000)">
                    <g id="Bubble" transform="translate(0.000000, 0.756000)">
                        <mask id="mask-4" fill="white">
                            <use xlink:href="#path-3"></use>
                        </mask>
                        <g id="Clip-2"></g>
                        <path d="M899.103307,436.309 C899.0713,623.312 791.9763,780.396 615.8563,844.223 C552.1353,867.316 487.0113,875.493 419.6553,870.48 C402.4783,869.202 390.1073,866.253 373.0223,863.982 C354.7703,861.554 328.4783,853.881 310.0663,853.708 C262.9993,853.267 200.5383,920.335 167.2683,892.029 C147.4363,875.155 155.2153,828.907 155.1913,805.136 C155.1603,772.786 146.5433,762.821 124.6043,741.452 C81.0453,699.028 45.0913,643.101 24.4453,585.987 C-8.5727,494.651 -7.3257,388.794 23.2493,296.967 C89.0693,99.294 279.0613,-10.934 482.9783,1.142 C597.2983,7.913 707.4473,54.051 785.8633,139.002 C860.3803,219.73 899.1223,327.126 899.103307,436.309" id="Fill-1" fill="url(#linearGradient-5)" mask="url(#mask-4)"></path>
                    </g>
                    <path d="M598.700654,596 C606.728357,596 613,602.625 613,610.875 L613,628.125 C613,636.25 606.602924,643 598.700654,643 L301.299346,643 C293.271643,643 287,636.375 287,628.125 L287,610.875 C287,602.75 293.397076,596 301.299346,596 L598.700654,596 Z M598.700654,507 C606.728357,507 613,513.642667 613,521.914667 L613,539.085333 C613,547.232 606.602924,554 598.700654,554 L301.299346,554 C293.271643,554 287,547.357333 287,539.085333 L287,521.914667 C287,513.768 293.397076,507 301.299346,507 L598.700654,507 Z M598.700654,418 C606.728357,418 613,424.625 613,432.875 L613,450.125 C613,458.25 606.602924,465 598.700654,465 L301.299346,465 C293.271643,465 287,458.375 287,450.125 L287,432.875 C287,424.75 293.397076,418 301.299346,418 L598.700654,418 Z M513.551935,232 C540.509802,232 562.953794,251.60724 567.091513,277.458824 C567.843826,278.957466 568.094597,280.830769 567.969211,282.329412 L567.969211,282.329412 L567.969211,355.513122 C567.969211,363.380995 561.449169,369.625339 554.176814,369.625339 L554.176814,369.625339 L534.867458,369.625339 C527.218947,369.625339 521.075061,363.006335 521.075061,355.513122 L521.075061,355.513122 L521.075061,292.445249 C521.075061,284.327602 514.805789,278.333032 507.157278,278.333032 L507.157278,278.333032 L394.686548,278.333032 C386.787266,278.333032 380.768765,284.702262 380.768765,292.445249 L380.768765,292.445249 L380.768765,355.887783 C380.768765,363.755656 374.248723,370 366.976368,370 L366.976368,370 L347.792397,370 C340.143886,370 334,363.380995 334,355.887783 L334,355.887783 L334,282.704072 C334,281.455204 334.250771,280.331222 334.501542,279.20724 C337.886948,252.606335 360.33094,232 388.166505,232 L388.166505,232 Z" id="Lock" fill="#FFFFFF" fill-rule="nonzero"></path>
                </g>
            </g>
        </g>
    </g>
</svg>